<?xml version="1.0" standalone="no"?>
<!DOCTYPE svg PUBLIC "-//W3C//DTD SVG 20010904//EN"
 "http://www.w3.org/TR/2001/REC-SVG-20010904/DTD/svg10.dtd">
<svg version="1.0" xmlns="http://www.w3.org/2000/svg"
 width="240.000000pt" height="240.000000pt" viewBox="0 0 240.000000 240.000000"
 preserveAspectRatio="xMidYMid meet">
<metadata>
Created by potrace 1.11, written by Peter Selinger 2001-2013
</metadata>
<g transform="translate(0.000000,240.000000) scale(0.100000,-0.100000)"
fill="#000000" stroke="none">
<path d="M837 2394 c-1 -1 -60 -4 -132 -8 -227 -10 -265 -19 -265 -64 0 -15
-5 -33 -11 -39 -7 -7 -5 -15 6 -27 13 -13 29 -15 68 -11 l52 5 -57 -13 c-32
-7 -60 -16 -64 -20 -11 -11 -8 -401 3 -394 4 3 9 -28 11 -68 3 -67 2 -74 -18
-80 -20 -6 -21 -12 -19 -116 3 -110 5 -116 42 -110 4 0 8 -50 8 -112 2 -144 3
-160 11 -173 4 -6 9 -21 12 -35 2 -13 11 -37 19 -54 18 -34 25 -141 11 -155
-5 -5 -26 -10 -47 -12 -56 -3 -73 -38 -76 -155 -1 -18 -10 -23 -58 -33 -141
-29 -157 -64 -149 -321 5 -158 8 -186 26 -216 11 -19 20 -40 20 -47 0 -7 9
-21 21 -32 19 -17 40 -19 208 -21 l186 -2 5 -38 c5 -34 8 -38 36 -39 17 -1 66
5 110 11 76 13 355 14 400 2 47 -12 90 -16 101 -9 6 4 13 22 15 40 2 18 8 33
13 33 6 1 18 5 28 10 9 6 143 10 302 9 157 0 285 4 285 8 0 5 30 9 67 10 91 1
154 11 177 27 35 26 44 96 42 330 -2 187 -6 236 -25 324 -38 171 -75 235 -168
281 -97 48 -241 23 -295 -52 -14 -21 -28 -66 -39 -136 -10 -57 -20 -107 -23
-109 -2 -2 -39 -5 -82 -6 l-78 -2 -22 65 c-13 36 -31 72 -41 80 -22 18 -24
122 -2 160 39 72 42 90 44 370 1 151 5 295 8 320 3 29 1 48 -6 53 -8 6 -5 7 6
3 16 -5 17 3 14 120 -2 69 0 127 4 129 3 3 6 35 5 72 -1 60 -4 69 -24 79 l-23
11 28 22 c24 18 26 23 13 34 -9 6 -15 22 -14 34 2 35 -48 49 -221 59 -92 6
-443 12 -448 8z m113 -124 c0 -5 -5 -10 -11 -10 -5 0 -7 5 -4 10 3 6 8 10 11
10 2 0 4 -4 4 -10z m-276 -8 c3 -5 -1 -9 -9 -9 -8 0 -12 4 -9 9 3 4 7 8 9 8 2
0 6 -4 9 -8z m51 -1 c-9 -8 -36 -10 -30 -2 2 4 11 8 20 8 8 0 13 -3 10 -6z
m45 3 c0 -8 -19 -13 -24 -6 -3 5 1 9 9 9 8 0 15 -2 15 -3z m118 -1 c-21 -2
-55 -2 -75 0 -21 2 -4 4 37 4 41 0 58 -2 38 -4z m169 1 c-3 -3 -12 -4 -19 -1
-8 3 -5 6 6 6 11 1 17 -2 13 -5z m121 -1 c-21 -2 -55 -2 -75 0 -21 2 -4 4 37
4 41 0 58 -2 38 -4z m81 -3 c-6 -5 -18 -6 -26 -3 -19 8 -16 11 13 11 17 0 22
-3 13 -8z m91 -5 c0 -2 -14 -3 -31 -3 -17 1 -25 4 -18 8 10 7 49 2 49 -5z
m-717 -2 c-7 -2 -21 -2 -30 0 -10 3 -4 5 12 5 17 0 24 -2 18 -5z"/>
</g>
</svg>
